<?xml version="1.0" encoding="UTF-8"?>
<svg id="Layer_1" data-name="Layer 1" xmlns="http://www.w3.org/2000/svg" viewBox="0 0 744.54 280.68">
  <path d="M194.66,70.95c-.41.08-.5-.4-.74-.53-.29-.17-.61.2-.99.11s-.51-1.33.02-1.39c.9-.11,1.78.8,1.71,1.81Z" fill="#569e91"/>
  <g>
    <path d="M246.05,13.93c-.33.57-1.27,1.12-1.67.43s1.12-1.64,1.61-1.26c.23.18.33.35.05.82Z" fill="#569e91"/>
    <g>
      <path d="M324.64,280.63l-96.28-.22c-12.17-.03-26.05-9.59-31.95-20.78-2.77-5.25-5-11.1-5-17.26l-.13-93.33c0-.74.18-1.32.24-1.94,1.91-19.71,17.63-34.98,37.36-36.74l94.98.17c9.07.02,17.58,4.64,24.14,10.2s13.19,17.68,13.21,26.43l.2,96.6c-2.02,19.55-17.12,34.72-36.76,36.87Z" fill="#569e91"/>
      <polygon points="289.27 250.51 263.53 250.59 263.53 139.5 289.26 139.5 289.27 250.51" fill="#fefefe"/>
    </g>
    <g>
      <path d="M320.85,57.37c.13-.46-.17-.81.07-1.18.74.02,1.66-.21,1.88-.85-.26-.17-.7-.06-.75-.25s.03-.36.14-.36h.76s-.43-1.2-.43-1.2c-.15-.41.26-.74.62-.74.39,0,.47.29.75.76.11-.77.36-1.5.33-2.34-.38-.26-.77-.17-1.07-.57.26-.48.98-.02,1.2-.3.37-.47-.02-1.14-.06-1.61l1.13.24q1.2.24,0,0c.12-.7-.23-1.51.09-2.13.3-.5.89-.83.62-1.64.48-.13.77-.18,1.19-.36-.12-.85.39-1.22.85-1.74.38-.43.3-1.25.81-1.6.54-.37,1.01-.73,1.26-1.42.68.25,1.08.83,1.52,1.16,1.78-.29-1.43-1.27-.6-1.72l.83-.45c.41-.22.29-1.2.66-1.68s.95-.33,1.5-.59c.32-.5-.72-1.03-.79-1.45-.08-.51.73-.74.98-.49l.78.8c.29-.9.02-1.98.66-2.68.34-.36.91.29,1.38.15-.16-.48-.79-.52-.76-1.23,3.08.58,1.32-.85,5.12-.75,1.19.03,2.4-.46,3.59.04.6.25.38,1.12.69,1.44,1.15,1.2,1.25,2.56,1.14,3.99-.04.49.61,1.44.27,2.07-.21.4-.64.78-1.15,1.24.9,2.51.07,1.94-.59,3.2-.34.65-.55,1.27-1.21,1.76.26.58.55.79.72,1.58-.88.07-.99,1.12-1.39,1.43-.97.74-.81,1.3-.85,2.28-.06,1.37-1.15,2.63-1.66,3.92-.2.51-.29,1.61-.74,1.81-.95.44-1.03,1.3-1.58,1.81-.61.56-.5.95-.84,1.65-.25.52-.87.7-.89,1.61-.01.69-1.22,1.3-1.7,1.7-1.06.89-.51,2.25-.95,3.23s-1.38,1.71-1.71,2.82c-.34,1.16-1,2.11-1.56,3.16-.19.35.12.89-.26,1.13-.23.15-.81.35-1,.57-.06.6-.44,1.08-.86,1.53-.85.91-.74,2.51-1.56,3.5-.86,1.04-1.79,2.05-1.59,3.63l-1.46-.11c.57.47.85.77.73,1.38-.11.53-.82.68-1.04,1.06-.67,1.18-1.27,2.27-2.32,3.21-.43.38-.37.88-1.1.98-.68.1-1.13,1.23-.96,1.93.49-.27.97-.71,1.51-.33-.43.97-1.37.66-2.05,1.05l-2.31,1.32c-.3.17-1.17-.13-1.22-.53s.35-.73.16-1.08-1.5-.78-1.62-1.32c-.1-.44.13-.79.28-1.29-.21-.27-.79-.23-.95-.49-.05-.83-.67-1.22-.96-1.86-.13-.28.52-1.27-.04-1.26l-1.91.02c.6,0-2.55-.57-2.46-1.29.03-.24.36-.3.61-.69l-1.62-.3c1.58-2.64,1.16-.76,1.07-3.01.72.21,1.39-.17,2.04-.12.42.03.38.66.23.87-.1.15-.45.32-.53.56-.14.38.53.47.77.27.14-.12.16-.38.3-.62.66.02.97.72,1.41,1.03.19-.55.35-1.32.94-1.19.48.1.72.34.87-.11.09-.25.36-.67-.2-.82-.45-.11-1.22.49-1.72.08-.37-.3.3-.81.42-1.09-.02-.42-.44-.13-.69-.05.54-1.49-.84.01-1.62-1.16-.21-.31-.14-.69.23-.98.21-.16.54-.16.87-.36-.49-.16-.83-.19-1.17-.27-.3-.07-.5-.85-.19-.92l1.49-.36.91,1.88c.06.13.43.07.62-.01l-1.98-3.23c1.45.31.32-.31,2.12-.64.08-.27-.28-1.21.29-1.25.74-.05,1.37.2,2.13.02-.42-.54-.87-.63-1.07-1.13-.44.22-1.7,1.24-1.95.66-.08-.18-.03-.49.12-.58.09-.05.39.02.51-.12,1.66-1.78.61-2.81.96-3.21.25-.28.64-.56,1.1-.51l2.16.21c.4.04-.06-.62-.05-.85.02-.37-.74-.24-.83-.45l-.6-1.56c-.24-.62.67-.85.98-1.13.47-.43-.03-1.27.27-1.65.33-.42.91.33,1.26.28.25-.04.45-.45.66-.34.17.09.29.2.55.45.15-.62.54-1.2,1.11-1.79l1.23,2.46c.14.27.71-.27.66-.55s-.42-.46-.62-.78c-.26-.44.42-.82.84-1.09-1.38-.99-1.02-1.4-2.17-2.09ZM338.14,37.92c-.44-.73-.85-1.29-1.36-1.92-.2.58-.19,1.14.25,1.46.24.18.58.54,1.11.46ZM336.08,37.71c.31-.48-.45-1.11-.83-.87.35.24.35.91.83.87ZM333.36,41.71c-.07.35.23.49.35.55s.34-.05.33-.14c0-.24.03-.58-.14-.57-.15.01-.49-.14-.55.17ZM331.58,42.89c.32-.13.56-.18.54-.28-.03-.13.09-.42-.01-.66-.2-.47-.61.13-.84.31-.27.21.03.75.31.64ZM327.31,50.05c-.75-.21-1.3-.22-1.6.18-.26.34.05.81.31.88.21.06.83.08.79-.13-.06-.38-.32-.63-.04-.76.17-.08.4.03.55-.18ZM325.92,53.73c.84-1.35,1.56-.06,1.4-1.26-.01-.09-.19-.22-.35-.35-.43.34-1.26.59-1.57,1.14-.19.34.22.72.51.47ZM328.82,60.88c-.08.46.33.61.44.45.17-.22.33-.36.21-.51-.13-.16-.61-.24-.66.05ZM319.2,64.39c.46-.4.79-.84.64-1.54l-1.11.83c-.24.18.14.56.47.7ZM314.61,75.36c.69-.51,1,.08,1.45.19s.63-.68.38-.89c-1.27-1.08-.75.38-2.31-.21.07.49.24.86.48.91ZM315.27,82.01c-.15-.64-.13-.96-.29-1.15-.11-.12-.57.18-.53.33.11.34.5.66.82.81Z" fill="#569e91"/>
  </g>
  <g>
    <g>
      <g>
        <path d="M23.88,277.13c-3.97-1.64-7.13-3.86-10.2-6.5C6.5,264.44,0,252.96,0,243.83l.02-96.41c0-9.31,6.72-21.53,14.11-27.43,6.44-5.15,14.58-9.43,23.23-9.45l95.06-.17c19.72,1.81,36.7,17.69,37.2,38.08.76,31.31.26,62.75.16,94.19-.06,18.59-18.24,37.43-36.89,37.76-32.11.56-64.12.13-96.22.18-4.44,0-8.82-1.79-12.78-3.43Z" fill="#c63341"/>
        <polygon points="122.01 226.89 122.07 250.58 47.62 250.56 47.6 139.52 73.35 139.48 73.35 226.87 122.01 226.89" fill="#fefefe"/>
      </g>
      <g>
        <path d="M516.13,280.61h-96.26c-19.66-1.98-34.83-17.24-36.89-36.84l.2-96.6c.02-8.75,6.35-20.62,13.21-26.43s15.07-10.18,24.14-10.2l94.98-.17c19.63,1.75,35.33,16.89,37.33,36.5.07.69.29,1.37.28,2.19l-.2,93.34c-.02,9.29-4.45,18.22-10.42,24.93-6.85,7.69-16.05,12.07-26.37,13.29Z" fill="#d29f22"/>
        <path d="M476.5,249.29c-4.81,1.49-9.4,2.09-14.36,2.34-7.98.25-15.8-.49-23.74-2.29v-22.9c6.34,1.43,12.62,2.14,19.04,2.03,3.16-.21,6.15-.7,8.86-2.24,2.86-1.55,4.63-4.2,4.85-7.43.25-3.63-1.04-6.96-3.47-9.68-2.02-2.26-4.27-4.13-6.79-5.87l-9.08-6.28c-3.19-2.21-5.91-4.74-8.43-7.64-5.39-6.22-7.73-13.95-7.18-22.14,1-14.98,11.9-23.87,25.74-27.08,8.04-1.87,16.21-2.16,24.42-1.23,1.94.21,3.67.28,5.58.77v22.65c-6.37-.93-17.02-2.01-22.72,1.38-1.59.99-2.98,2.22-3.63,4-1.17,3.2-.2,6.63,2.15,9.04,1.7,1.74,3.5,3.18,5.51,4.57l9.07,6.29c4.6,3.19,8.37,7.11,11.5,11.71,4.91,7.22,6.8,15.56,5.7,24.2-1.67,13.17-10.53,21.89-23.02,25.79Z" fill="#fefefe"/>
      </g>
    </g>
    <g>
      <path d="M730.75,270.55c-3.05,2.86-6.46,4.8-10.15,6.57-4.08,1.97-8.31,2.86-12.91,3.51l-96.17-.02c-10.22-1.09-19.5-5.58-26.34-13.14-6.4-6.78-9.89-15.49-10.73-24.86v-94.24c1.18-14.83,9.92-27.76,23.26-34.18,4.53-1.8,9.17-3.72,14.26-3.72l95.03-.09c8.67.86,16.62,3.95,23.17,9.56l2.72,2.55c6.69,6.72,10.61,15.39,11.63,24.92v96.41c-.98,8.52-4.27,16.46-9.86,22.82-1.22,1.46-2.33,2.74-3.93,3.9Z" fill="#2e85c7"/>
      <path d="M683.19,235.28h-47.85s-7.72,15.3-7.72,15.3l-27.48-.03,58.39-113.38c.68-.4,1.27-.36,2.01-.07l58.43,113.46h-28.46s-7.31-15.28-7.31-15.28Z" fill="#fefefe"/>
      <polygon points="673.01 214 645.73 214 659.36 185.25 673.01 214" fill="#2e85c7"/>
    </g>
  </g>
</svg>
